# xmcd
#
# Track frame offsets:
#	150
#	15742
#	28692
#	42591
#	59276
#	68769
#	80197
#	91232
#	104635
#	118197
#	129510
#	139160
#	150392
#
# Disc length: 2214 seconds
# Revision: 0
# Processed by: cddbd v1.5.2PL0 Copyright (c) Steve Scherf et al.
# Submitted via: dBpowerAMP V12.0
#
DISCID=b408a40d
DTITLE=Carson Peters and Iron Mountain - Carson Peters and Iron Mountain
DYEAR=2017
DGENRE=Country
TTITLE0=Oak Creek
TTITLE1=Little Georgia Rose
TTITLE2=Like a Train
TTITLE3=Heart that will Never Break Again
TTITLE4=Love's Gonna Live Here Again
TTITLE5=Little Darlin'
TTITLE6=Cryin' Holy Unto the Lord
TTITLE7=Kentucky Waltz
TTITLE8=The Old Home Place
TTITLE9=Sadie's Got Her New Dress On
TTITLE10=Walking in Jerusalem
TTITLE11=Like Me in this World Without You
TTITLE12=He's All I Need
EXTD=
EXTT0=
EXTT1=
EXTT2=
EXTT3=
EXTT4=
EXTT5=
EXTT6=
EXTT7=
EXTT8=
EXTT9=
EXTT10=
EXTT11=
EXTT12=
PLAYORDER=
